<svg width="64" height="64" viewBox="0 0 64 64" fill="none" xmlns="http://www.w3.org/2000/svg">
<g clip-path="url(#clip0_7_68)">
<path fill-rule="evenodd" clip-rule="evenodd" d="M32 45.7143C39.5742 45.7143 45.7143 39.5742 45.7143 32C45.7143 24.4258 39.5742 18.2857 32 18.2857C24.4258 18.2857 18.2857 24.4258 18.2857 32C18.2857 39.5742 24.4258 45.7143 32 45.7143ZM41.1428 32C41.1428 37.0494 37.0494 41.1428 32 41.1428C26.9506 41.1428 22.8571 37.0494 22.8571 32C22.8571 26.9506 26.9506 22.8571 32 22.8571C37.0494 22.8571 41.1428 26.9506 41.1428 32Z" fill="black"/>
<path fill-rule="evenodd" clip-rule="evenodd" d="M0 29.7134V34.2848C0 37.8235 2.68025 40.736 6.12135 41.1031C6.41344 41.9335 6.74427 42.7454 7.11161 43.5367C4.85678 46.2309 4.99511 50.2491 7.52665 52.7808L10.7591 56.0133C13.2331 58.4871 17.127 58.6757 19.8172 56.5785C20.8101 57.0715 21.8373 57.5063 22.8944 57.8784C23.2615 61.3195 26.1739 64 29.7127 64H34.2841C37.8219 64 40.7339 61.3209 41.1019 57.8807C42.0626 57.5429 42.9986 57.1534 43.9065 56.7152C46.5881 58.6661 50.3643 58.432 52.7831 56.0133L56.0155 52.7808C58.4343 50.3621 58.6683 46.5858 56.7177 43.9042C57.1552 42.9973 57.5445 42.0624 57.8821 41.1026C61.3216 40.7339 64 37.8222 64 34.2848V29.7134C64 26.176 61.3216 23.2645 57.8821 22.8958C57.5097 21.8371 57.0745 20.8085 56.5808 19.8145C58.6761 17.1243 58.4873 13.2317 56.0139 10.7584L52.7815 7.52592C50.2505 4.99499 46.2334 4.85611 43.5394 7.10926C42.7467 6.74137 41.9335 6.41008 41.1017 6.11765C40.733 2.67833 37.8213 0 34.2841 0H29.7127C26.1746 0 23.2624 2.67957 22.8946 6.12C21.9607 6.44869 21.05 6.82635 20.1657 7.24985C17.473 4.85145 13.3432 4.94345 10.7607 7.52592L7.52823 10.7584C4.94576 13.3409 4.85376 17.4707 7.25223 20.1635C6.82827 21.0486 6.45026 21.9603 6.12135 22.8953C2.68025 23.2624 0 26.1749 0 29.7134ZM36.5698 6.85714C36.5698 5.59479 35.5465 4.57143 34.2841 4.57143H29.7127C28.4503 4.57143 27.427 5.59479 27.427 6.85714V7.73186C27.427 8.81881 26.6574 9.74345 25.6135 10.0467C23.9922 10.5177 22.4451 11.1635 20.9942 11.9622C20.042 12.4864 18.844 12.3767 18.0754 11.6081L17.2257 10.7584C16.3331 9.86578 14.8859 9.86578 13.9932 10.7584L10.7607 13.9909C9.86809 14.8835 9.86809 16.3308 10.7607 17.2234L11.6105 18.0731C12.3791 18.8417 12.4888 20.0397 11.9646 20.9919C11.1654 22.4437 10.5193 23.9915 10.0483 25.6139C9.74514 26.6581 8.82043 27.4277 7.73335 27.4277H6.85714C5.59479 27.4277 4.57143 28.4512 4.57143 29.7134V34.2848C4.57143 35.5472 5.59479 36.5705 6.85714 36.5705H7.73335C8.82043 36.5705 9.74512 37.3403 10.0483 38.3842C10.4904 39.9072 11.0867 41.3643 11.8191 42.7381C12.3246 43.6862 12.2079 44.867 11.4481 45.6267L10.7591 46.3159C9.86651 47.2085 9.86651 48.6555 10.7591 49.5483L13.9916 52.7808C14.8843 53.6734 16.3315 53.6734 17.2241 52.7808L17.7803 52.2247C18.5577 51.4471 19.7727 51.3447 20.7287 51.8875C22.2559 52.7552 23.8928 53.4519 25.6135 53.9518C26.6574 54.2549 27.427 55.1797 27.427 56.2665V57.1429C27.427 58.4053 28.4503 59.4286 29.7127 59.4286H34.2841C35.5465 59.4286 36.5698 58.4053 36.5698 57.1429V56.2683C36.5698 55.1813 37.3397 54.2565 38.3838 53.9534C40.0073 53.4823 41.5563 52.8359 43.0089 52.0361C43.9611 51.512 45.1591 51.6217 45.9278 52.3904L46.3182 52.7808C47.2107 53.6734 48.6581 53.6734 49.5506 52.7808L52.7831 49.5483C53.6757 48.6555 53.6757 47.2085 52.7831 46.3159L52.3927 45.9255C51.624 45.1568 51.5143 43.9589 52.0386 43.0066C52.8379 41.5547 53.4839 40.0069 53.955 38.3842C54.2581 37.3403 55.1829 36.5705 56.2699 36.5705H57.1429C58.4053 36.5705 59.4286 35.5472 59.4286 34.2848V29.7134C59.4286 28.4512 58.4053 27.4277 57.1429 27.4277H56.2699C55.1829 27.4277 54.2581 26.6581 53.955 25.6139C53.4551 23.8923 52.7582 22.2543 51.8901 20.7262C51.347 19.7703 51.4496 18.5553 52.227 17.7779L52.7815 17.2234C53.6741 16.3308 53.6741 14.8835 52.7815 13.9909L49.549 10.7584C48.6565 9.86578 47.2091 9.86578 46.3166 10.7584L45.6293 11.4457C44.8695 12.2054 43.6885 12.3222 42.7403 11.8167C41.3659 11.0838 39.9077 10.4872 38.3838 10.045C37.3397 9.74194 36.5698 8.81719 36.5698 7.72999V6.85714Z" fill="black"/>
</g>
<defs>
<clipPath id="clip0_7_68">
<rect width="64" height="64" fill="white"/>
</clipPath>
</defs>
</svg>
