<svg width="52" height="61" viewBox="0 0 52 61" fill="none" xmlns="http://www.w3.org/2000/svg">
<path d="M19.7395 57V49.4643L19.8388 44.1089C19.9581 42.443 20.6082 40.8727 21.6779 39.6572C21.6936 39.6393 21.7093 39.6216 21.7252 39.6039C21.7665 39.558 21.7393 39.4838 21.6779 39.4761C14.5301 38.5854 7.0829 35.5724 7.0829 22.4543C7.0363 19.2234 8.09216 16.0913 10.0436 13.6347C10.1119 13.5487 10.1813 13.4636 10.2517 13.3794C10.3434 13.2697 10.3734 13.1211 10.3314 12.9845C10.3288 12.9762 10.3263 12.9679 10.3238 12.9596C10.2761 12.8036 10.2314 12.6468 10.1897 12.4895C9.4723 9.78507 9.62655 6.89625 10.6362 4.28909C10.6436 4.26983 10.6511 4.2506 10.6587 4.23138C10.6964 4.13542 10.7755 4.06207 10.8772 4.04396C11.511 3.93113 14.0724 3.78017 18.976 7.16074C19.1287 7.26595 19.2835 7.3746 19.4407 7.48675C19.5542 7.56772 19.6985 7.59255 19.8327 7.55442L19.8454 7.5508C20.1086 7.4761 20.3725 7.40522 20.6371 7.33812C25.2983 6.1561 30.1553 6.1561 34.8164 7.33812C35.0674 7.40172 35.3175 7.46876 35.5673 7.53919L35.5835 7.54382C35.7413 7.58845 35.9109 7.5593 36.0445 7.46423C36.1908 7.36002 36.335 7.25888 36.4774 7.16074C41.3695 3.78729 43.9168 3.93051 44.5536 4.04325C44.6571 4.0616 44.7379 4.13627 44.7769 4.23397C44.7819 4.24654 44.7866 4.25908 44.7916 4.27166C45.8183 6.87999 45.9814 9.77741 45.2635 12.4895C45.2207 12.6511 45.1747 12.8121 45.1258 12.9724C45.0815 13.1165 45.1134 13.2733 45.2098 13.3891L45.219 13.4C45.2836 13.4775 45.3473 13.5557 45.4098 13.6347C47.3614 16.0913 48.4172 19.2234 48.3706 22.4543C48.3706 35.6439 40.8705 38.5781 33.6886 39.3775C33.647 39.3819 33.6284 39.4317 33.6564 39.4626C33.667 39.4744 33.6779 39.4861 33.6886 39.4979C34.4132 40.3038 34.9754 41.2602 35.3393 42.3081C35.7198 43.4037 35.8746 44.5736 35.7935 45.7387V57" stroke="#1A1A1C" stroke-width="7" stroke-linecap="round" stroke-linejoin="round"/>
<path d="M4 45.2907C5.09808 45.4453 6.14646 45.8474 7.0658 46.4659C7.98511 47.0847 8.75126 47.9037 9.30615 48.8616C9.77765 49.7143 10.4133 50.4658 11.1767 51.0728C11.9401 51.6798 12.8162 52.1307 13.7547 52.3991C14.6931 52.6679 15.6755 52.7489 16.6455 52.6377C17.6155 52.5269 18.5539 52.2259 19.407 51.7522" stroke="#1A1A1C" stroke-width="7" stroke-linecap="round" stroke-linejoin="round"/>
</svg>
